<mxfile host="Electron" agent="Mozilla/5.0 (Macintosh; Intel Mac OS X 10_15_7) AppleWebKit/537.36 (KHTML, like Gecko) draw.io/24.7.5 Chrome/126.0.6478.183 Electron/31.3.0 Safari/537.36" version="24.7.5">
  <diagram name="Architecture" id="0">
    <mxGraphModel dx="1026" dy="522" grid="1" gridSize="10" guides="1" tooltips="1" connect="1" arrows="1" fold="1" page="1" pageScale="1" pageWidth="827" pageHeight="1169" math="0" shadow="0">
      <root>
        <mxCell id="0" />
        <mxCell id="1" parent="0" />
        <mxCell id="2" value="IBM COS - Bucket A" style="shape=cloud" parent="1" vertex="1">
          <mxGeometry x="20" y="30" width="170" height="70" as="geometry" />
        </mxCell>
        <mxCell id="3" value="IBM COS - Bucket B" style="shape=cloud" parent="1" vertex="1">
          <mxGeometry x="420" y="30" width="170" height="70" as="geometry" />
        </mxCell>
        <mxCell id="4" value="IBM VPC" style="shape=swimlane;startSize=20;" parent="1" vertex="1">
          <mxGeometry x="10" y="160" width="500" height="130" as="geometry" />
        </mxCell>
        <mxCell id="5" value="VSI with Rclone" style="shape=ellipse" parent="4" vertex="1">
          <mxGeometry x="190" y="50" width="120" height="60" as="geometry" />
        </mxCell>
        <mxCell id="6" style="endArrow=block;dashed=1;" parent="1" source="2" target="5" edge="1">
          <mxGeometry relative="1" as="geometry" />
        </mxCell>
        <mxCell id="8" style="endArrow=block;dashed=1;" parent="1" source="5" target="3" edge="1">
          <mxGeometry relative="1" as="geometry" />
        </mxCell>
        <mxCell id="7" value="Sync using Rclone via IBM Private Network" style="text;html=1;strokeColor=none;fillColor=none;" parent="1" vertex="1">
          <mxGeometry x="160" y="110" width="300" height="30" as="geometry" />
        </mxCell>
      </root>
    </mxGraphModel>
  </diagram>
</mxfile>
